<?xml version="1.0" encoding="UTF-8"?><svg id="a" xmlns="http://www.w3.org/2000/svg" width="64" height="64" xmlns:xlink="http://www.w3.org/1999/xlink" viewBox="0 0 64 64"><defs><linearGradient id="b" x1="17.79" y1="56.21" x2="55.91" y2="18.09" gradientTransform="matrix(1, 0, 0, 1, 0, 0)" gradientUnits="userSpaceOnUse"><stop offset="0" stop-color="#107eff"/><stop offset="1" stop-color="#8f16ff"/></linearGradient><linearGradient id="c" x1="18.04" y1="56.46" x2="56.16" y2="18.34" xlink:href="#b"/><linearGradient id="d" x1="11.44" y1="49.87" x2="49.56" y2="11.75" xlink:href="#b"/><linearGradient id="e" x1="15.29" y1="53.71" x2="53.41" y2="15.59" xlink:href="#b"/><linearGradient id="f" x1="17.79" y1="56.21" x2="55.91" y2="18.09" xlink:href="#b"/><linearGradient id="g" x1="22.54" y1="60.96" x2="60.66" y2="22.84" xlink:href="#b"/><linearGradient id="h" x1="25.04" y1="63.46" x2="63.16" y2="25.34" xlink:href="#b"/><linearGradient id="i" x1="22.54" y1="60.96" x2="60.66" y2="22.84" xlink:href="#b"/><linearGradient id="j" x1="25.04" y1="63.46" x2="63.16" y2="25.34" xlink:href="#b"/><linearGradient id="k" x1="1.54" y1="39.96" x2="39.66" y2="1.84" xlink:href="#b"/><linearGradient id="l" x1="31.29" y1="69.71" x2="69.41" y2="31.59" xlink:href="#b"/><linearGradient id="m" x1="-8.21" y1="30.21" x2="29.91" y2="-7.91" xlink:href="#b"/><linearGradient id="n" x1="-8.71" y1="29.71" x2="29.41" y2="-8.41" xlink:href="#b"/></defs><path d="M56.47,10H21.53c-4.15,0-7.53,3.38-7.53,7.53V52.47c0,4.15,3.38,7.53,7.53,7.53H56.47c4.15,0,7.53-3.38,7.53-7.53V17.53c0-4.15-3.38-7.53-7.53-7.53Zm5.53,42.47c0,3.05-2.48,5.53-5.53,5.53H21.53c-3.05,0-5.53-2.48-5.53-5.53V17.53c0-3.05,2.48-5.53,5.53-5.53H56.47c3.05,0,5.53,2.48,5.53,5.53V52.47Z" fill="url(#b)"/><path d="M53.61,23H24.39c-2.97,0-5.39,2.42-5.39,5.39v14.23c0,2.97,2.42,5.39,5.39,5.39h4.45c2.32,0,4.38-1.48,5.11-3.68,.46-1.39,1.75-2.32,3.21-2.32h3.68c1.46,0,2.75,.93,3.21,2.32,.73,2.2,2.79,3.68,5.11,3.68h4.45c2.97,0,5.39-2.42,5.39-5.39v-14.23c0-2.97-2.42-5.39-5.39-5.39Zm-9.39,2c-.35,.59-.98,1-1.72,1h-6c-.74,0-1.38-.41-1.72-1h9.44Zm12.78,17.61c0,1.87-1.52,3.39-3.39,3.39h-4.45c-1.46,0-2.75-.93-3.21-2.32-.73-2.2-2.79-3.68-5.11-3.68h-3.68c-2.32,0-4.38,1.48-5.11,3.68-.46,1.39-1.75,2.32-3.21,2.32h-4.45c-1.87,0-3.39-1.52-3.39-3.39v-14.23c0-1.87,1.52-3.39,3.39-3.39h8.25c.45,1.72,2,3,3.86,3h6c1.86,0,3.41-1.28,3.86-3h7.25c1.87,0,3.39,1.52,3.39,3.39v14.23Z" fill="url(#c)"/><path d="M28.8,32.38c.72-.55,1.2-1.41,1.2-2.38,0-1.65-1.35-3-3-3s-3,1.35-3,3c0,.98,.47,1.83,1.2,2.38-1.59,.7-2.7,2.28-2.7,4.12,0,2.48,2.02,4.5,4.5,4.5s4.5-2.02,4.5-4.5c0-1.84-1.11-3.42-2.7-4.12Zm-1.8-3.38c.55,0,1,.45,1,1s-.45,1-1,1-1-.45-1-1,.45-1,1-1Zm0,10c-1.38,0-2.5-1.12-2.5-2.5,0-1.02,.62-1.9,1.5-2.29v1.79c0,.55,.45,1,1,1s1-.45,1-1v-1.79c.88,.39,1.5,1.27,1.5,2.29,0,1.38-1.12,2.5-2.5,2.5Z" fill="url(#d)"/><path d="M38,31h-2c-.55,0-1,.45-1,1s.45,1,1,1h2c.55,0,1-.45,1-1s-.45-1-1-1Z" fill="url(#e)"/><path d="M43,31h-2c-.55,0-1,.45-1,1s.45,1,1,1h2c.55,0,1-.45,1-1s-.45-1-1-1Z" fill="url(#f)"/><path d="M51,34c.55,0,1-.45,1-1v-1c0-.55-.45-1-1-1s-1,.45-1,1v1c0,.55,.45,1,1,1Z" fill="url(#g)"/><path d="M51,36c-.55,0-1,.45-1,1v1c0,.55,.45,1,1,1s1-.45,1-1v-1c0-.55-.45-1-1-1Z" fill="url(#h)"/><path d="M49,34h-1c-.55,0-1,.45-1,1s.45,1,1,1h1c.55,0,1-.45,1-1s-.45-1-1-1Z" fill="url(#i)"/><path d="M54,34h-1c-.55,0-1,.45-1,1s.45,1,1,1h1c.55,0,1-.45,1-1s-.45-1-1-1Z" fill="url(#j)"/><path d="M21.88,19.62c.2,.2,.45,.29,.71,.29s.51-.1,.71-.29l.71-.71,.71,.71c.2,.2,.45,.29,.71,.29s.51-.1,.71-.29c.39-.39,.39-1.02,0-1.41l-.71-.71,.71-.71c.39-.39,.39-1.02,0-1.41s-1.02-.39-1.41,0l-.71,.71-.71-.71c-.39-.39-1.02-.39-1.41,0s-.39,1.02,0,1.41l.71,.71-.71,.71c-.39,.39-.39,1.02,0,1.41Z" fill="url(#k)"/><circle cx="48" cy="53" r="1" fill="url(#l)"/><path d="M3,16c-1.65,0-3,1.35-3,3s1.35,3,3,3,3-1.35,3-3-1.35-3-3-3Zm0,4c-.55,0-1-.45-1-1s.45-1,1-1,1,.45,1,1-.45,1-1,1Z" fill="url(#m)"/><circle cx="9" cy="12" r="1" fill="url(#n)"/></svg>