<?xml version="1.0" encoding="UTF-8"?><svg id="a" xmlns="http://www.w3.org/2000/svg" width="64" height="64" xmlns:xlink="http://www.w3.org/1999/xlink" viewBox="0 0 64 64"><defs><linearGradient id="b" x1="1.74" y1="40.76" x2="37.4" y2="5.1" gradientTransform="matrix(1, 0, 0, 1, 0, 0)" gradientUnits="userSpaceOnUse"><stop offset="0" stop-color="#107eff"/><stop offset="1" stop-color="#8f16ff"/></linearGradient><linearGradient id="c" x1="17.49" y1="56.51" x2="53.15" y2="20.85" xlink:href="#b"/><linearGradient id="d" x1="13.24" y1="52.26" x2="48.9" y2="16.6" xlink:href="#b"/><linearGradient id="e" x1="21.74" y1="60.76" x2="57.4" y2="25.1" xlink:href="#b"/><linearGradient id="f" x1="32.49" y1="71.51" x2="68.15" y2="35.85" xlink:href="#b"/><linearGradient id="g" x1="-8.51" y1="30.51" x2="27.15" y2="-5.15" xlink:href="#b"/><linearGradient id="h" x1="-9.01" y1="30.01" x2="26.65" y2="-5.65" xlink:href="#b"/></defs><path d="M23.71,21.62c.2,.2,.45,.29,.71,.29s.51-.1,.71-.29c.39-.39,.39-1.02,0-1.41l-.71-.71,.71-.71c.39-.39,.39-1.02,0-1.41s-1.02-.39-1.41,0l-.71,.71-.71-.71c-.39-.39-1.02-.39-1.41,0s-.39,1.02,0,1.41l.71,.71-.71,.71c-.39,.39-.39,1.02,0,1.41,.2,.2,.45,.29,.71,.29s.51-.1,.71-.29l.71-.71,.71,.71Z" fill="url(#b)"/><path d="M56.47,10H21.53c-4.15,0-7.53,3.38-7.53,7.53V52.47c0,4.15,3.38,7.53,7.53,7.53H56.47c4.15,0,7.53-3.38,7.53-7.53V17.53c0-4.15-3.38-7.53-7.53-7.53Zm5.53,42.47c0,3.05-2.48,5.53-5.53,5.53H21.53c-3.05,0-5.53-2.48-5.53-5.53V17.53c0-3.05,2.48-5.53,5.53-5.53H56.47c3.05,0,5.53,2.48,5.53,5.53V52.47Z" fill="url(#c)"/><path d="M37.87,28.66l-5-4c-1.1-.88-2.64-.89-3.75,0l-5,4c-.71,.57-1.12,1.43-1.12,2.34,0,.67,.21,1.3,.62,1.83,.47,.61,1.17,1,1.98,1.1,.85,.1,1.72-.14,2.38-.67l.02-.02v9.76c0,1.65,1.35,3,3,3s3-1.35,3-3v-9.76l.04,.03c1.18,.95,2.89,.93,3.96-.04,.66-.6,1.02-1.44,1-2.32-.03-.88-.44-1.7-1.12-2.26Zm-1.21,3.09c-.35,.31-.95,.3-1.37-.04l-1.67-1.33c-.3-.24-.71-.29-1.06-.12-.35,.17-.57,.52-.57,.9v11.84c0,.55-.45,1-1,1s-1-.45-1-1v-11.84c0-.38-.22-.73-.57-.9-.14-.07-.29-.1-.43-.1-.22,0-.44,.07-.62,.22l-1.65,1.32c-.24,.19-.58,.28-.89,.25-.15-.02-.44-.09-.63-.34-.17-.22-.21-.45-.21-.61,0-.31,.14-.59,.38-.78l5-4h0c.37-.29,.88-.29,1.25,0l5,4c.23,.18,.37,.46,.38,.75,0,.3-.11,.57-.34,.78Z" fill="url(#d)"/><path d="M50.04,36.73l-.04,.03v-9.76c0-1.65-1.35-3-3-3s-3,1.35-3,3v9.76l-.02-.02c-.66-.53-1.53-.78-2.38-.67-.8,.1-1.51,.49-1.98,1.1-.41,.53-.62,1.16-.62,1.83,0,.92,.41,1.77,1.12,2.34l5,4c.55,.44,1.21,.66,1.88,.66s1.32-.22,1.87-.66l5-4c.69-.55,1.1-1.37,1.12-2.26,.03-.88-.34-1.73-1-2.32-1.07-.97-2.77-.99-3.96-.04Zm2.58,3.05l-5,4c-.37,.29-.88,.29-1.25,0h0l-5-4c-.24-.19-.38-.47-.38-.78,0-.15,.04-.39,.21-.61,.19-.25,.48-.32,.63-.33,.05,0,.1,0,.14,0,.27,0,.54,.09,.75,.25l1.65,1.32c.3,.24,.71,.29,1.06,.12,.35-.17,.57-.52,.57-.9v-11.84c0-.55,.45-1,1-1s1,.45,1,1v11.84c0,.38,.22,.73,.57,.9,.35,.17,.76,.12,1.06-.12l1.66-1.33c.42-.34,1.02-.35,1.37-.04,.23,.21,.35,.48,.34,.78,0,.29-.15,.57-.38,.75Z" fill="url(#e)"/><circle cx="53" cy="51" r="1" fill="url(#f)"/><path d="M3,16c-1.65,0-3,1.35-3,3s1.35,3,3,3,3-1.35,3-3-1.35-3-3-3Zm0,4c-.55,0-1-.45-1-1s.45-1,1-1,1,.45,1,1-.45,1-1,1Z" fill="url(#g)"/><circle cx="9" cy="12" r="1" fill="url(#h)"/></svg>