<?xml version="1.0" encoding="UTF-8"?>
<svg xmlns="http://www.w3.org/2000/svg" xmlns:xlink="http://www.w3.org/1999/xlink" id="a" width="65px" height="65px" viewBox="0 0 65 65"><defs><linearGradient id="b" x1="32.92" y1="72.58" x2="70.38" y2="35.12" gradientTransform="matrix(1, 0, 0, 1, 0, 0)" gradientUnits="userSpaceOnUse"><stop offset="0" stop-color="#107eff"/><stop offset="1" stop-color="#8f16ff"/></linearGradient><linearGradient id="c" x1="17.17" y1="56.83" x2="54.63" y2="19.37" xlink:href="#b"/><linearGradient id="d" x1="9.17" y1="48.83" x2="46.63" y2="11.37" xlink:href="#b"/><linearGradient id="e" x1="17.17" y1="56.83" x2="54.63" y2="19.37" xlink:href="#b"/><linearGradient id="f" x1="17.17" y1="56.83" x2="54.63" y2="19.37" xlink:href="#b"/><linearGradient id="g" x1="25.17" y1="64.83" x2="62.63" y2="27.37" xlink:href="#b"/><linearGradient id="h" x1="-.33" y1="39.33" x2="37.13" y2="1.87" xlink:href="#b"/><linearGradient id="i" x1="-8.83" y1="30.83" x2="28.63" y2="-6.63" xlink:href="#b"/><linearGradient id="j" x1="-9.33" y1="30.33" x2="28.13" y2="-7.13" xlink:href="#b"/></defs><path d="M57.12,48.38c-.39-.39-1.02-.39-1.41,0l-.71,.71-.71-.71c-.39-.39-1.02-.39-1.41,0s-.39,1.02,0,1.41l.71,.71-.71,.71c-.39,.39-.39,1.02,0,1.41,.2,.2,.45,.29,.71,.29s.51-.1,.71-.29l.71-.71,.71,.71c.2,.2,.45,.29,.71,.29s.51-.1,.71-.29c.39-.39,.39-1.02,0-1.41l-.71-.71,.71-.71c.39-.39,.39-1.02,0-1.41Z" fill="url(#b)"/><path d="M56.47,10H21.53c-4.15,0-7.53,3.38-7.53,7.53V52.47c0,4.15,3.38,7.53,7.53,7.53H56.47c4.15,0,7.53-3.38,7.53-7.53V17.53c0-4.15-3.38-7.53-7.53-7.53Zm5.53,42.47c0,3.05-2.48,5.53-5.53,5.53H21.53c-3.05,0-5.53-2.48-5.53-5.53V17.53c0-3.05,2.48-5.53,5.53-5.53H56.47c3.05,0,5.53,2.48,5.53,5.53V52.47Z" fill="url(#c)"/><path d="M37,20h-12c-.55,0-1,.45-1,1v12c0,.55,.45,1,1,1h12c.55,0,1-.45,1-1v-12c0-.55-.45-1-1-1Zm-1,12h-10v-10h10v10Z" fill="url(#d)"/><path d="M41,34h12c.55,0,1-.45,1-1v-12c0-.55-.45-1-1-1h-12c-.55,0-1,.45-1,1v12c0,.55,.45,1,1,1Zm1-12h10v10h-10v-10Z" fill="url(#e)"/><path d="M37,36h-12c-.55,0-1,.45-1,1v12c0,.55,.45,1,1,1h12c.55,0,1-.45,1-1v-12c0-.55-.45-1-1-1Zm-1,12h-10v-10h10v10Z" fill="url(#f)"/><path d="M54,45v-4c0-.55-.45-1-1-1h-3v-3c0-.55-.45-1-1-1h-4c-.55,0-1,.45-1,1v3h-3c-.55,0-1,.45-1,1v4c0,.55,.45,1,1,1h3v3c0,.55,.45,1,1,1h4c.55,0,1-.45,1-1v-3h3c.55,0,1-.45,1-1Zm-2-1h-3c-.55,0-1,.45-1,1v3h-2v-3c0-.55-.45-1-1-1h-3v-2h3c.55,0,1-.45,1-1v-3h2v3c0,.55,.45,1,1,1h3v2Z" fill="url(#g)"/><circle cx="21" cy="18" r="1" fill="url(#h)"/><path d="M3,16c-1.65,0-3,1.35-3,3s1.35,3,3,3,3-1.35,3-3-1.35-3-3-3Zm0,4c-.55,0-1-.45-1-1s.45-1,1-1,1,.45,1,1-.45,1-1,1Z" fill="url(#i)"/><circle cx="9" cy="12" r="1" fill="url(#j)"/></svg>
