<?xml version="1.0" encoding="UTF-8"?>
<svg xmlns="http://www.w3.org/2000/svg" xmlns:xlink="http://www.w3.org/1999/xlink" id="a" width="65px" height="65px" viewBox="0 0 65 65"><defs><linearGradient id="b" x1="16.5" y1="57.5" x2="55.17" y2="18.83" gradientTransform="matrix(1, 0, 0, 1, 0, 0)" gradientUnits="userSpaceOnUse"><stop offset="0" stop-color="#107eff"/><stop offset="1" stop-color="#8f16ff"/></linearGradient><linearGradient id="c" x1="12.5" y1="53.5" x2="51.17" y2="14.83" xlink:href="#b"/><linearGradient id="d" x1="12.75" y1="53.75" x2="51.42" y2="15.08" xlink:href="#b"/><linearGradient id="e" x1="15.5" y1="56.5" x2="54.17" y2="17.83" xlink:href="#b"/><linearGradient id="f" x1="17" y1="58" x2="55.67" y2="19.33" xlink:href="#b"/><linearGradient id="g" x1="19.75" y1="60.75" x2="58.42" y2="22.08" xlink:href="#b"/><linearGradient id="h" x2="55.17" y2="18.83" xlink:href="#b"/><linearGradient id="i" x1="-1.25" y1="39.75" x2="37.42" y2="1.08" xlink:href="#b"/><linearGradient id="j" x1="34.5" y1="75.5" x2="73.17" y2="36.83" xlink:href="#b"/><linearGradient id="k" x1="-9.5" y1="31.5" x2="29.17" y2="-7.17" xlink:href="#b"/><linearGradient id="l" x1="-10" y1="31" x2="28.67" y2="-7.67" xlink:href="#b"/></defs><path d="M56.47,10H21.53c-4.15,0-7.53,3.38-7.53,7.53V52.47c0,4.15,3.38,7.53,7.53,7.53H56.47c4.15,0,7.53-3.38,7.53-7.53V17.53c0-4.15-3.38-7.53-7.53-7.53Zm5.53,42.47c0,3.05-2.48,5.53-5.53,5.53H21.53c-3.05,0-5.53-2.48-5.53-5.53V17.53c0-3.05,2.48-5.53,5.53-5.53H56.47c3.05,0,5.53,2.48,5.53,5.53V52.47Z" fill="url(#b)"/><path d="M42,29h-12c-.55,0-1,.45-1,1s.45,1,1,1h12c.55,0,1-.45,1-1s-.45-1-1-1Z" fill="url(#c)"/><path d="M30,34h7c.55,0,1-.45,1-1s-.45-1-1-1h-7c-.55,0-1,.45-1,1s.45,1,1,1Z" fill="url(#d)"/><path d="M42,35h-12c-.55,0-1,.45-1,1s.45,1,1,1h12c.55,0,1-.45,1-1s-.45-1-1-1Z" fill="url(#e)"/><path d="M30,44h4c.55,0,1-.45,1-1s-.45-1-1-1h-4c-.55,0-1,.45-1,1s.45,1,1,1Z" fill="url(#f)"/><path d="M39,45h-9c-.55,0-1,.45-1,1s.45,1,1,1h9c.55,0,1-.45,1-1s-.45-1-1-1Z" fill="url(#g)"/><path d="M54,22h-1.01c-.03-2.76-2.28-5-5.05-5H30.05c-2.79,0-5.05,2.27-5.05,5.05v25.9c0,2.79,2.27,5.05,5.05,5.05h17.9c2.79,0,5.05-2.27,5.05-5.05v-1.47s.03-.04,.04-.06l1.87-4c.06-.13,.09-.28,.09-.42V23c0-.55-.45-1-1-1Zm-1.93,21.76l-.41-.76h.76l-.36,.76Zm-1.07-2.76v-14h2v14h-2Zm0-16v-1h2v1h-2Zm-20.95-6h17.9c1.67,0,3.02,1.34,3.05,3h-.99c-.55,0-1,.45-1,1v1H27v-1.95c0-1.68,1.37-3.05,3.05-3.05Zm17.9,32H30.05c-1.68,0-3.05-1.37-3.05-3.05V26h22v16c0,.16,.04,.33,.12,.47l1.88,3.53v1.95c0,1.68-1.37,3.05-3.05,3.05Z" fill="url(#h)"/><path d="M23.12,15.38c-.39-.39-1.02-.39-1.41,0l-.71,.71-.71-.71c-.39-.39-1.02-.39-1.41,0s-.39,1.02,0,1.41l.71,.71-.71,.71c-.39,.39-.39,1.02,0,1.41,.2,.2,.45,.29,.71,.29s.51-.1,.71-.29l.71-.71,.71,.71c.2,.2,.45,.29,.71,.29s.51-.1,.71-.29c.39-.39,.39-1.02,0-1.41l-.71-.71,.71-.71c.39-.39,.39-1.02,0-1.41Z" fill="url(#i)"/><circle cx="58" cy="52" r="1" fill="url(#j)"/><path d="M3,16c-1.65,0-3,1.35-3,3s1.35,3,3,3,3-1.35,3-3-1.35-3-3-3Zm0,4c-.55,0-1-.45-1-1s.45-1,1-1,1,.45,1,1-.45,1-1,1Z" fill="url(#k)"/><circle cx="9" cy="12" r="1" fill="url(#l)"/></svg>
