<?xml version="1.0" encoding="UTF-8"?>
<svg xmlns="http://www.w3.org/2000/svg" xmlns:xlink="http://www.w3.org/1999/xlink" id="a" width="65px" height="65px" viewBox="0 0 65 65"><defs><linearGradient id="b" x1="-.46" y1="40.96" x2="39.48" y2="1.02" gradientTransform="matrix(1, 0, 0, 1, 0, 0)" gradientUnits="userSpaceOnUse"><stop offset="0" stop-color="#107eff"/><stop offset="1" stop-color="#8f16ff"/></linearGradient><linearGradient id="c" x1="16.29" y1="57.71" x2="56.23" y2="17.77" xlink:href="#b"/><linearGradient id="d" x1="18.84" y1="60.26" x2="58.78" y2="20.31" xlink:href="#b"/><linearGradient id="e" x1="14.67" y1="56.09" x2="54.61" y2="16.15" xlink:href="#b"/><linearGradient id="f" x1="24.79" y1="66.21" x2="64.73" y2="26.27" xlink:href="#b"/><linearGradient id="g" x1="-9.71" y1="31.71" x2="30.23" y2="-8.23" xlink:href="#b"/><linearGradient id="h" x1="-10.21" y1="31.21" x2="29.73" y2="-8.73" xlink:href="#b"/></defs><path d="M23.71,19.62c.2,.2,.45,.29,.71,.29s.51-.1,.71-.29c.39-.39,.39-1.02,0-1.41l-.71-.71,.71-.71c.39-.39,.39-1.02,0-1.41s-1.02-.39-1.41,0l-.71,.71-.71-.71c-.39-.39-1.02-.39-1.41,0s-.39,1.02,0,1.41l.71,.71-.71,.71c-.39,.39-.39,1.02,0,1.41,.2,.2,.45,.29,.71,.29s.51-.1,.71-.29l.71-.71,.71,.71Z" fill="url(#b)"/><path d="M56.47,10H21.53c-4.15,0-7.53,3.38-7.53,7.53V52.47c0,4.15,3.38,7.53,7.53,7.53H56.47c4.15,0,7.53-3.38,7.53-7.53V17.53c0-4.15-3.38-7.53-7.53-7.53Zm5.53,42.47c0,3.05-2.48,5.53-5.53,5.53H21.53c-3.05,0-5.53-2.48-5.53-5.53V17.53c0-3.05,2.48-5.53,5.53-5.53H56.47c3.05,0,5.53,2.48,5.53,5.53V52.47Z" fill="url(#c)"/><path d="M49.6,42.07c.88-1.49,1.4-3.22,1.4-5.07,0-3.26-1.58-6.15-4-7.98v-10.02c0-.55-.45-1-1-1h-15c-.27,0-.52,.11-.71,.29l-7,7c-.19,.19-.29,.44-.29,.71v24c0,.55,.45,1,1,1h22c.55,0,1-.45,1-1v-3.46l6.27,6.27c.49,.49,1.13,.73,1.77,.73s1.28-.24,1.77-.73c.97-.97,.97-2.56,0-3.54l-7.2-7.2Zm-.6-5.07c0,4.41-3.59,8-8,8s-8-3.59-8-8,3.59-8,8-8,8,3.59,8,8Zm-19-15.59v3.59h-3.59l3.59-3.59Zm-5,27.59V27h6c.55,0,1-.45,1-1v-6h13v7.84c-1.23-.54-2.58-.84-4-.84-5.51,0-10,4.49-10,10s4.49,10,10,10c1.42,0,2.77-.3,4-.84v2.84H25Zm30.39,2.39c-.2,.19-.51,.2-.71,0l-6.98-6.99c.25-.22,.48-.46,.71-.71l6.98,6.98c.2,.2,.2,.51,0,.71Z" fill="url(#d)"/><path d="M41,30c-3.86,0-7,3.14-7,7,0,.55,.45,1,1,1s1-.45,1-1c0-2.76,2.24-5,5-5,.55,0,1-.45,1-1s-.45-1-1-1Z" fill="url(#e)"/><circle cx="55" cy="36" r="1" fill="url(#f)"/><path d="M3,16c-1.65,0-3,1.35-3,3s1.35,3,3,3,3-1.35,3-3-1.35-3-3-3Zm0,4c-.55,0-1-.45-1-1s.45-1,1-1,1,.45,1,1-.45,1-1,1Z" fill="url(#g)"/><circle cx="9" cy="12" r="1" fill="url(#h)"/></svg>
