<?xml version="1.0" encoding="UTF-8"?>
<svg xmlns="http://www.w3.org/2000/svg" xmlns:xlink="http://www.w3.org/1999/xlink" id="a" width="65px" height="65px" viewBox="0 0 65 65"><defs><linearGradient id="b" x1="6.39" y1="43.11" x2="42.61" y2="6.89" gradientTransform="matrix(1, 0, 0, 1, 0, 0)" gradientUnits="userSpaceOnUse"><stop offset="0" stop-color="#107eff"/><stop offset="1" stop-color="#8f16ff"/></linearGradient><linearGradient id="c" x1="18.64" y1="55.36" x2="54.86" y2="19.14" xlink:href="#b"/><linearGradient id="d" x1="18.39" y1="55.11" x2="54.61" y2="18.89" xlink:href="#b"/><linearGradient id="e" x1="23.89" y1="60.61" x2="60.11" y2="24.39" xlink:href="#b"/><linearGradient id="f" x1="30.14" y1="66.86" x2="66.36" y2="30.64" xlink:href="#b"/><linearGradient id="g" x1="7.14" y1="43.86" x2="43.36" y2="7.64" xlink:href="#b"/><linearGradient id="h" x1="-7.36" y1="29.36" x2="28.86" y2="-6.86" xlink:href="#b"/><linearGradient id="i" x1="-7.86" y1="28.86" x2="28.36" y2="-7.36" xlink:href="#b"/></defs><path d="M25,25.91l.71,.71c.2,.2,.45,.29,.71,.29s.51-.1,.71-.29c.39-.39,.39-1.02,0-1.41l-.71-.71,.71-.71c.39-.39,.39-1.02,0-1.41s-1.02-.39-1.41,0l-.71,.71-.71-.71c-.39-.39-1.02-.39-1.41,0s-.39,1.02,0,1.41l.71,.71-.71,.71c-.39,.39-.39,1.02,0,1.41,.2,.2,.45,.29,.71,.29s.51-.1,.71-.29l.71-.71Z" fill="url(#b)"/><path d="M56.47,10H21.53c-4.15,0-7.53,3.38-7.53,7.53V52.47c0,4.15,3.38,7.53,7.53,7.53H56.47c4.15,0,7.53-3.38,7.53-7.53V17.53c0-4.15-3.38-7.53-7.53-7.53Zm5.53,42.47c0,3.05-2.48,5.53-5.53,5.53H21.53c-3.05,0-5.53-2.48-5.53-5.53V17.53c0-3.05,2.48-5.53,5.53-5.53H56.47c3.05,0,5.53,2.48,5.53,5.53V52.47Z" fill="url(#c)"/><path d="M52.69,19.2c-1.51-1.51-3.96-1.51-5.47,0l-19.89,19.89c-.11,.11-.19,.24-.24,.39l-2.83,8.49c-.12,.36-.03,.76,.24,1.02,.19,.19,.45,.29,.71,.29,.11,0,.21-.02,.32-.05l8.49-2.83c.15-.05,.28-.13,.39-.24l19.89-19.89c1.51-1.51,1.51-3.96,0-5.47l-1.6-1.6Zm-22.33,22.52l-1.06-1.77,15-15,1.41,1.41-15.36,15.36Zm15.36-18.19l.71-.71,4.24,4.24-.71,.71-4.24-4.24Zm-17.42,18.64l1,1.67s.05,.04,.07,.07c.03,.04,.05,.09,.08,.13s.08,.05,.13,.08c.03,.02,.04,.05,.07,.07l1.67,1-4.53,1.51,1.51-4.53Zm5.24,2.02l-1.77-1.06,15.36-15.36,1.41,1.41-15,15Zm19.34-19.34l-.8,.8-4.24-4.24,.8-.8c.73-.73,1.91-.73,2.64,0l1.6,1.6c.73,.73,.73,1.91,0,2.64Z" fill="url(#d)"/><path d="M41,50h-15c-.55,0-1,.45-1,1s.45,1,1,1h15c.55,0,1-.45,1-1s-.45-1-1-1Z" fill="url(#e)"/><path d="M48,50h-4c-.55,0-1,.45-1,1s.45,1,1,1h4c.55,0,1-.45,1-1s-.45-1-1-1Z" fill="url(#f)"/><circle cx="32" cy="19" r="1" fill="url(#g)"/><path d="M3,16c-1.65,0-3,1.35-3,3s1.35,3,3,3,3-1.35,3-3-1.35-3-3-3Zm0,4c-.55,0-1-.45-1-1s.45-1,1-1,1,.45,1,1-.45,1-1,1Z" fill="url(#h)"/><circle cx="9" cy="12" r="1" fill="url(#i)"/></svg>
