<?xml version="1.0" encoding="UTF-8"?>
<svg xmlns="http://www.w3.org/2000/svg" xmlns:xlink="http://www.w3.org/1999/xlink" id="a" width="65px" height="65px" viewBox="0 0 65 65"><defs><linearGradient id="b" x1=".51" y1="40.99" x2="39.01" y2="2.49" gradientTransform="matrix(1, 0, 0, 1, 0, 0)" gradientUnits="userSpaceOnUse"><stop offset="0" stop-color="#107eff"/><stop offset="1" stop-color="#8f16ff"/></linearGradient><linearGradient id="c" x1="16.76" y1="57.24" x2="55.26" y2="18.74" xlink:href="#b"/><linearGradient id="d" x1="16.76" y1="57.24" x2="55.26" y2="18.74" xlink:href="#b"/><linearGradient id="e" x1="33.26" y1="73.74" x2="71.76" y2="35.24" xlink:href="#b"/><linearGradient id="f" x1="-9.24" y1="31.24" x2="29.26" y2="-7.26" xlink:href="#b"/><linearGradient id="g" x1="-9.74" y1="30.74" x2="28.76" y2="-7.76" xlink:href="#b"/></defs><path d="M22.29,20.62l.71-.71,.71,.71c.2,.2,.45,.29,.71,.29s.51-.1,.71-.29c.39-.39,.39-1.02,0-1.41l-.71-.71,.71-.71c.39-.39,.39-1.02,0-1.41s-1.02-.39-1.41,0l-.71,.71-.71-.71c-.39-.39-1.02-.39-1.41,0s-.39,1.02,0,1.41l.71,.71-.71,.71c-.39,.39-.39,1.02,0,1.41,.2,.2,.45,.29,.71,.29s.51-.1,.71-.29Z" fill="url(#b)"/><path d="M56.47,10H21.53c-4.15,0-7.53,3.38-7.53,7.53V52.47c0,4.15,3.38,7.53,7.53,7.53H56.47c4.15,0,7.53-3.38,7.53-7.53V17.53c0-4.15-3.38-7.53-7.53-7.53Zm5.53,42.47c0,3.05-2.48,5.53-5.53,5.53H21.53c-3.05,0-5.53-2.48-5.53-5.53V17.53c0-3.05,2.48-5.53,5.53-5.53H56.47c3.05,0,5.53,2.48,5.53,5.53V52.47Z" fill="url(#c)"/><path d="M52.81,29.28c.44-.84,.68-1.79,.68-2.77,0-1.6-.62-3.11-1.76-4.24-1.13-1.13-2.64-1.76-4.24-1.76-.98,0-1.92,.24-2.77,.68-.77-2.43-3.04-4.19-5.72-4.19s-4.95,1.76-5.72,4.19c-.84-.44-1.79-.68-2.77-.68-1.6,0-3.11,.62-4.24,1.76-1.13,1.13-1.76,2.64-1.76,4.24,0,.98,.24,1.92,.68,2.77-2.43,.77-4.19,3.04-4.19,5.72s1.76,4.95,4.19,5.72c-.44,.84-.68,1.79-.68,2.77,0,1.6,.62,3.11,1.76,4.24,1.13,1.13,2.64,1.76,4.24,1.76,.98,0,1.92-.24,2.77-.68,.77,2.43,3.04,4.19,5.72,4.19s4.95-1.76,5.72-4.19c.84,.44,1.79,.68,2.77,.68,1.6,0,3.11-.62,4.24-1.76,1.13-1.13,1.76-2.64,1.76-4.24,0-.98-.24-1.92-.68-2.77,2.43-.77,4.19-3.04,4.19-5.72s-1.76-4.95-4.19-5.72Zm-7.91,9.72c-.11-.63-.31-1.24-.61-1.8,.61-.19,1.19-.48,1.71-.85l2.65,2.65h-3.75Zm-4.56,3c.37-.52,.66-1.1,.84-1.7,.56,.3,1.17,.5,1.81,.61v3.75l-2.65-2.65Zm-7.25-11c.11,.63,.31,1.24,.61,1.8-.61,.19-1.18,.47-1.71,.85l-2.65-2.65h3.75Zm4.56-3.01c-.37,.52-.66,1.1-.85,1.7-.56-.3-1.17-.5-1.8-.6v-3.75l2.65,2.65Zm-.65,7.01c0-1.1,.9-2,2-2s2,.9,2,2-.9,2-2,2-2-.9-2-2Zm4.49-3.11c.39-.31,.83-.54,1.3-.69-.15,.47-.37,.92-.69,1.3-.18-.23-.39-.43-.62-.62Zm-5.6,.62c-.31-.39-.55-.83-.7-1.31,.48,.15,.93,.37,1.32,.69-.23,.18-.44,.39-.62,.62Zm-.85,2.05c-.02,.15-.04,.29-.04,.44s.03,.3,.04,.44c-.5-.05-.98-.2-1.43-.43,.45-.24,.92-.4,1.43-.45Zm.85,2.93c.18,.23,.39,.44,.62,.62-.39,.31-.83,.54-1.3,.69,.15-.47,.37-.92,.68-1.31Zm6.22,0c.31,.39,.53,.83,.68,1.3-.47-.15-.92-.37-1.3-.68,.23-.18,.44-.39,.62-.62Zm.85-2.06c.02-.14,.04-.28,.04-.43s-.03-.29-.04-.44c.49,.05,.96,.21,1.4,.43-.44,.22-.91,.38-1.4,.43Zm.04-6.34c-.63,.11-1.24,.31-1.81,.61-.19-.61-.47-1.19-.85-1.71l2.65-2.65v3.75Zm-3.56,1.95c-.15-.02-.29-.04-.44-.04s-.29,.03-.44,.04c.05-.5,.21-.97,.44-1.41,.23,.44,.39,.91,.44,1.41Zm-7.44,5.31c.52,.37,1.1,.66,1.71,.84-.3,.56-.5,1.17-.61,1.81h-3.75l2.65-2.65Zm3.01,4.56c.63-.11,1.24-.31,1.8-.61,.19,.61,.47,1.18,.85,1.71l-2.65,2.65v-3.75Zm3.56-1.95c.15,.02,.29,.04,.44,.04s.29-.03,.44-.04c-.05,.5-.2,.98-.43,1.42-.23-.44-.4-.92-.45-1.42Zm7.45-5.3c-.53-.37-1.1-.66-1.71-.84,.3-.56,.51-1.17,.61-1.81h3.75l-2.65,2.65Zm4.31-9.97c.76,.76,1.17,1.76,1.17,2.83,0,.92-.32,1.78-.89,2.49h-5.6v-5.59c1.54-1.21,3.91-1.13,5.31,.28Zm-11.31-4.69c2.05,0,3.73,1.56,3.96,3.56l-3.96,3.96-3.96-3.96c.22-2,1.9-3.56,3.96-3.56Zm-11.31,4.69c1.41-1.41,3.77-1.49,5.31-.28v5.59h-5.6c-.57-.71-.89-1.57-.89-2.49,0-1.07,.42-2.07,1.17-2.83Zm-4.69,11.31c0-2.06,1.56-3.73,3.56-3.96l3.96,3.96-3.96,3.96c-2-.22-3.56-1.9-3.56-3.96Zm4.69,11.31c-.76-.76-1.17-1.76-1.17-2.83,0-.92,.32-1.78,.89-2.49h5.6v5.59c-1.54,1.21-3.91,1.13-5.31-.28Zm11.31,4.69c-2.05,0-3.73-1.56-3.96-3.56l3.96-3.96,3.96,3.96c-.22,2-1.9,3.56-3.96,3.56Zm11.31-4.69c-1.41,1.41-3.77,1.49-5.31,.28v-5.59h5.6c.57,.71,.89,1.57,.89,2.49,0,1.07-.42,2.07-1.17,2.83Zm1.13-7.36l-3.96-3.96,3.96-3.96c2,.22,3.56,1.9,3.56,3.96s-1.56,3.73-3.56,3.96Z" fill="url(#d)"/><circle cx="54" cy="53" r="1" fill="url(#e)"/><path d="M3,16c-1.65,0-3,1.35-3,3s1.35,3,3,3,3-1.35,3-3-1.35-3-3-3Zm0,4c-.55,0-1-.45-1-1s.45-1,1-1,1,.45,1,1-.45,1-1,1Z" fill="url(#f)"/><circle cx="9" cy="12" r="1" fill="url(#g)"/></svg>
